<svg width="24" height="24" viewBox="0 0 24 24" fill="none" xmlns="http://www.w3.org/2000/svg">
<path fill-rule="evenodd" clip-rule="evenodd" d="M5.81193 15.4355C4.52642 14.1509 3.81821 12.4426 3.81821 10.6244C3.81821 8.80609 4.52642 7.09692 5.81193 5.81232C7.09745 4.5259 8.8057 3.81859 10.624 3.81859C12.4413 3.81859 14.1505 4.5259 15.436 5.81323C16.7215 7.09692 17.4297 8.80609 17.4297 10.6244C17.4297 12.4426 16.7215 14.1509 15.436 15.4355C14.1505 16.7219 12.4413 17.4292 10.624 17.4292C8.8057 17.4292 7.09745 16.7219 5.81193 15.4355ZM21.4682 18.8971L17.8689 15.297C18.7635 13.916 19.2481 12.3087 19.2481 10.624C19.2481 8.32029 18.3507 6.15473 16.7216 4.52557C15.0933 2.8964 12.9278 2 10.624 2C8.32029 2 6.15473 2.8964 4.52648 4.52557C2.89731 6.15473 2 8.32029 2 10.624C2 12.9269 2.89731 15.0933 4.52648 16.7216C6.15473 18.3507 8.32029 19.2471 10.624 19.2471C12.3087 19.2471 13.9169 18.7635 15.2979 17.868L18.8962 21.4672C19.2408 21.8109 19.6963 22 20.1826 22C20.6681 22 21.1245 21.8109 21.4682 21.4672C21.8118 21.1245 22.0009 20.6681 22.0009 20.1817C22.0009 19.6963 21.8118 19.2399 21.4682 18.8971Z" fill="black"/>
</svg>
